<?xml version="1.0" standalone="no"?>
<!DOCTYPE svg PUBLIC "-//W3C//DTD SVG 20010904//EN"
 "http://www.w3.org/TR/2001/REC-SVG-20010904/DTD/svg10.dtd">
<svg version="1.0" xmlns="http://www.w3.org/2000/svg"
 width="300.000000pt" height="300.000000pt" viewBox="0 0 300.000000 300.000000"
 preserveAspectRatio="xMidYMid meet">
<metadata>
Created by potrace 1.10, written by Peter Selinger 2001-2011
</metadata>
<g transform="translate(0.000000,300.000000) scale(0.100000,-0.100000)"
fill="#000000" stroke="none">
<path d="M1275 2861 c-57 -26 -95 -65 -95 -97 0 -26 36 -69 93 -110 28 -19 28
-20 21 -101 l-7 -81 -94 -7 -95 -7 4 -54 3 -54 -40 -5 c-41 -5 -748 -75 -762
-75 -5 0 1 -125 13 -277 21 -268 42 -471 143 -1393 l47 -425 24 3 c190 19
1612 158 1838 178 294 27 303 29 298 49 -15 61 -81 629 -151 1310 -19 187 -46
425 -60 529 -14 104 -25 195 -25 203 0 20 -90 17 -423 -17 -163 -17 -305 -30
-316 -30 -14 0 -21 9 -26 33 -15 72 -10 69 -83 62 -37 -3 -77 -8 -88 -10 -20
-4 -23 4 -43 87 l-21 92 29 30 c17 17 37 48 45 68 19 45 7 82 -35 104 -40 20
-145 18 -194 -5z m188 -38 c26 -24 21 -39 -29 -93 l-46 -49 22 -96 c12 -53 20
-98 18 -99 -1 -2 -27 -6 -56 -8 l-53 -5 6 66 c3 36 8 76 11 88 3 16 -4 30 -23
45 -105 89 -110 100 -58 134 68 45 167 53 208 17z m168 -403 c16 -73 25 -200
15 -190 -15 15 -82 12 -96 -5 -11 -13 -5 -15 49 -15 52 0 61 -3 61 -18 0 -14
-13 -21 -57 -30 -40 -8 -59 -9 -61 -2 -3 7 -9 7 -18 -1 -12 -10 -12 -8 0 15
18 36 7 111 -39 256 -5 17 1 19 52 23 86 5 86 5 94 -33z m-354 -47 c-4 -38 -7
-87 -7 -110 0 -54 -19 -73 -75 -73 l-43 0 -6 60 c-3 33 -9 87 -12 120 l-6 59
69 4 c37 1 72 4 77 5 5 1 6 -27 3 -65z m196 -37 c36 -131 34 -155 -15 -181
-37 -19 -53 -40 -23 -29 8 4 15 1 15 -5 0 -14 -59 -14 -80 -1 -12 7 -8 10 15
11 23 0 18 4 -23 14 -30 7 -58 17 -63 22 -7 7 -6 55 2 140 l12 130 66 2 66 2
28 -105z m927 76 c0 -4 9 -79 20 -167 11 -88 36 -320 55 -515 53 -536 83 -801
116 -1058 27 -209 32 -287 16 -242 -14 36 -83 591 -157 1250 -44 393 -80 721
-80 728 0 6 7 12 15 12 8 0 15 -3 15 -8z m-70 -11 c0 -24 55 -559 91 -881 57
-520 76 -669 110 -893 17 -109 28 -201 26 -204 -3 -2 -137 -16 -299 -29 -161
-14 -399 -36 -528 -49 -801 -82 -1170 -118 -1174 -114 -2 2 -20 157 -40 344
-21 187 -59 538 -86 780 -27 242 -56 514 -64 605 -9 91 -18 189 -21 218 -4 43
-2 52 11 52 21 0 647 58 705 66 l46 5 7 -88 c4 -48 10 -100 13 -116 l6 -28 76
7 c86 8 101 15 93 47 -5 20 -2 19 30 -9 22 -20 52 -34 79 -38 38 -6 46 -4 61
15 10 11 18 27 18 35 0 18 10 18 24 -1 10 -13 21 -13 99 2 l88 17 -6 76 c-3
41 -9 87 -11 103 -5 21 -2 27 13 28 10 0 142 13 293 28 315 33 340 34 340 22z
m-1067 -253 c9 -32 1 -38 -52 -38 -44 0 -49 3 -53 24 -5 27 5 32 68 35 25 1
33 -4 37 -21z"/>
</g>
</svg>
